<svg xmlns="http://www.w3.org/2000/svg" xmlns:xlink="http://www.w3.org/1999/xlink" width="500" zoomAndPan="magnify" viewBox="0 0 375 149.999998" height="200" preserveAspectRatio="xMidYMid meet" version="1.0"><defs><clipPath id="c8a865cd21"><path d="M 0.316406 0.199219 L 67.570312 0.199219 L 67.570312 104.875 L 0.316406 104.875 Z M 0.316406 0.199219 " clip-rule="nonzero"/></clipPath><clipPath id="af201d8287"><path d="M 37.773438 40.820312 C 34.496094 43.976562 30.058594 45.515625 24.207031 45.515625 L 14.144531 45.515625 L 14.144531 7.300781 L 24.785156 7.300781 C 30.554688 7.300781 34.855469 8.957031 37.929688 12.363281 C 41.035156 15.808594 42.605469 20.671875 42.605469 26.816406 C 42.605469 33.019531 40.980469 37.730469 37.773438 40.820312 M 14.144531 52.835938 C 16.34375 52.609375 20.050781 52.617188 21.300781 52.617188 L 29.589844 52.617188 C 36.46875 52.617188 41.722656 54.480469 45.640625 58.3125 C 49.492188 62.074219 51.445312 67.675781 51.445312 74.960938 C 51.445312 82.046875 49.578125 87.6875 45.914062 91.726562 C 42.257812 95.75 37.230469 97.707031 30.550781 97.707031 L 14.144531 97.707031 Z M 56.351562 53.671875 C 53.234375 51.269531 49.660156 49.386719 45.734375 48.078125 C 45.191406 47.894531 44.640625 47.726562 44.089844 47.5625 C 46.246094 46.335938 48.273438 44.828125 50.125 43.0625 C 52.390625 40.902344 54.226562 38.4375 55.582031 35.734375 C 56.984375 32.933594 57.699219 29.933594 57.699219 26.824219 C 57.699219 22.066406 56.746094 17.910156 54.859375 14.480469 C 52.996094 11.085938 50.476562 8.28125 47.375 6.152344 C 44.359375 4.089844 40.898438 2.558594 37.066406 1.605469 C 33.34375 0.667969 29.527344 0.199219 25.746094 0.199219 L 3.058594 0.199219 C 1.550781 0.199219 0.316406 1.429688 0.316406 2.941406 L 0.316406 102.0625 C 0.316406 103.574219 1.550781 104.804688 3.058594 104.804688 L 32.664062 104.804688 C 36.875 104.804688 41.066406 104.226562 45.128906 103.082031 C 49.273438 101.917969 52.996094 100.144531 56.195312 97.804688 C 59.453125 95.414062 62.148438 92.285156 64.195312 88.496094 C 66.265625 84.664062 67.3125 80.105469 67.3125 74.957031 C 67.3125 70.308594 66.242188 66.128906 64.148438 62.542969 C 62.113281 59.082031 59.492188 56.09375 56.351562 53.671875 " clip-rule="nonzero"/></clipPath><clipPath id="3943f8a9b4"><path d="M 0.316406 0.199219 L 67.359375 0.199219 L 67.359375 104.875 L 0.316406 104.875 Z M 0.316406 0.199219 " clip-rule="nonzero"/></clipPath><clipPath id="6e4f43c8fb"><path d="M 37.773438 40.820312 C 34.496094 43.976562 30.058594 45.515625 24.207031 45.515625 L 14.144531 45.515625 L 14.144531 7.300781 L 24.785156 7.300781 C 30.554688 7.300781 34.855469 8.957031 37.929688 12.363281 C 41.035156 15.808594 42.605469 20.671875 42.605469 26.816406 C 42.605469 33.019531 40.980469 37.730469 37.773438 40.820312 M 14.144531 52.835938 C 16.34375 52.609375 20.050781 52.617188 21.300781 52.617188 L 29.589844 52.617188 C 36.46875 52.617188 41.722656 54.480469 45.640625 58.3125 C 49.492188 62.074219 51.445312 67.675781 51.445312 74.960938 C 51.445312 82.046875 49.578125 87.6875 45.914062 91.726562 C 42.257812 95.75 37.230469 97.707031 30.550781 97.707031 L 14.144531 97.707031 Z M 56.351562 53.671875 C 53.234375 51.269531 49.660156 49.386719 45.734375 48.078125 C 45.191406 47.894531 44.640625 47.726562 44.089844 47.5625 C 46.246094 46.335938 48.273438 44.828125 50.125 43.0625 C 52.390625 40.902344 54.226562 38.4375 55.582031 35.734375 C 56.984375 32.933594 57.699219 29.933594 57.699219 26.824219 C 57.699219 22.066406 56.746094 17.910156 54.859375 14.480469 C 52.996094 11.085938 50.476562 8.28125 47.375 6.152344 C 44.359375 4.089844 40.898438 2.558594 37.066406 1.605469 C 33.34375 0.667969 29.527344 0.199219 25.746094 0.199219 L 3.058594 0.199219 C 1.550781 0.199219 0.316406 1.429688 0.316406 2.941406 L 0.316406 102.0625 C 0.316406 103.574219 1.550781 104.804688 3.058594 104.804688 L 32.664062 104.804688 C 36.875 104.804688 41.066406 104.226562 45.128906 103.082031 C 49.273438 101.917969 52.996094 100.144531 56.195312 97.804688 C 59.453125 95.414062 62.148438 92.285156 64.195312 88.496094 C 66.265625 84.664062 67.3125 80.105469 67.3125 74.957031 C 67.3125 70.308594 66.242188 66.128906 64.148438 62.542969 C 62.113281 59.082031 59.492188 56.09375 56.351562 53.671875 " clip-rule="nonzero"/></clipPath><clipPath id="dd8b1272f9"><rect x="0" width="68" y="0" height="105"/></clipPath><clipPath id="51c7f985fb"><path d="M 76.535156 43.394531 L 125.402344 43.394531 L 125.402344 104.816406 L 76.535156 104.816406 Z M 76.535156 43.394531 " clip-rule="nonzero"/></clipPath><clipPath id="ca8a3fd561"><path d="M 101.738281 48.4375 C 95.632812 48.4375 89.664062 54.136719 87.808594 64.882812 C 95.238281 64.882812 102.660156 64.882812 110.492188 64.480469 C 112.882812 64.480469 113.675781 63.820312 113.675781 61.828125 C 113.808594 54.796875 109.167969 48.429688 101.738281 48.429688 M 124.550781 91.941406 C 116.058594 102.554688 106.777344 104.808594 102.53125 104.808594 C 86.351562 104.808594 76.535156 91.539062 76.535156 76.292969 C 76.535156 67.269531 79.71875 58.914062 85.15625 53.078125 C 90.726562 46.84375 98.019531 43.394531 104.921875 43.394531 C 116.460938 43.394531 125.21875 53.34375 125.21875 63.957031 C 125.082031 66.609375 124.6875 67.800781 122.5625 68.332031 C 119.910156 68.863281 102.933594 70.058594 87.148438 70.589844 C 86.746094 88.363281 97.625 95.65625 107.042969 95.65625 C 112.480469 95.65625 117.523438 93.40625 122.425781 88.894531 Z M 124.550781 91.941406 " clip-rule="nonzero"/></clipPath><clipPath id="b21b545a3f"><path d="M 0.535156 0.394531 L 49.402344 0.394531 L 49.402344 61.816406 L 0.535156 61.816406 Z M 0.535156 0.394531 " clip-rule="nonzero"/></clipPath><clipPath id="bb6f7af2dd"><path d="M 25.738281 5.4375 C 19.632812 5.4375 13.664062 11.136719 11.808594 21.882812 C 19.238281 21.882812 26.660156 21.882812 34.492188 21.480469 C 36.882812 21.480469 37.675781 20.820312 37.675781 18.828125 C 37.808594 11.796875 33.167969 5.429688 25.738281 5.429688 M 48.550781 48.941406 C 40.058594 59.554688 30.777344 61.808594 26.53125 61.808594 C 10.351562 61.808594 0.535156 48.539062 0.535156 33.292969 C 0.535156 24.269531 3.71875 15.914062 9.15625 10.078125 C 14.726562 3.84375 22.019531 0.394531 28.921875 0.394531 C 40.460938 0.394531 49.21875 10.34375 49.21875 20.957031 C 49.082031 23.609375 48.6875 24.800781 46.5625 25.332031 C 43.910156 25.863281 26.933594 27.058594 11.148438 27.589844 C 10.746094 45.363281 21.625 52.65625 31.042969 52.65625 C 36.480469 52.65625 41.523438 50.40625 46.425781 45.894531 Z M 48.550781 48.941406 " clip-rule="nonzero"/></clipPath><clipPath id="8b970cc1a4"><rect x="0" width="50" y="0" height="62"/></clipPath><clipPath id="e59edf1263"><path d="M 136 44.9375 L 188.960938 44.9375 L 188.960938 106.585938 L 136 106.585938 Z M 136 44.9375 " clip-rule="nonzero"/></clipPath><clipPath id="7112a24bf3"><path d="M 167.910156 72.839844 C 164.992188 74.300781 158.625 77.085938 155.574219 78.410156 C 150.535156 80.664062 147.484375 83.1875 147.484375 88.09375 C 147.484375 95.121094 152.792969 98.304688 157.039062 98.304688 C 160.488281 98.304688 165.265625 96.183594 167.917969 93.53125 Z M 177.59375 106.394531 C 175.605469 106.394531 172.6875 105.335938 171.359375 103.878906 C 169.640625 102.15625 168.84375 100.300781 168.175781 97.910156 C 162.871094 101.492188 156.371094 106.402344 152.261719 106.402344 C 142.839844 106.394531 136.074219 98.570312 136.074219 90.085938 C 136.074219 83.589844 139.652344 79.34375 146.949219 76.824219 C 155.039062 74.042969 164.984375 70.59375 167.902344 68.203125 L 167.902344 65.542969 C 167.902344 56.128906 163.128906 50.691406 156.234375 50.691406 C 153.1875 50.691406 151.328125 52.152344 150.003906 53.738281 C 148.539062 55.597656 147.613281 58.515625 146.421875 62.359375 C 145.757812 64.484375 144.566406 65.410156 142.578125 65.410156 C 140.0625 65.410156 136.742188 62.753906 136.742188 59.570312 C 136.742188 57.714844 138.46875 56.121094 141.117188 54.261719 C 144.960938 51.488281 152.65625 46.574219 160.214844 44.988281 C 164.195312 44.988281 168.304688 46.179688 171.359375 48.570312 C 176 52.546875 178.125 57.058594 178.125 63.953125 L 178.125 89.554688 C 178.125 95.660156 180.375 97.515625 182.765625 97.515625 C 184.355469 97.515625 186.078125 96.855469 187.539062 96.0625 L 188.867188 99.777344 Z M 177.59375 106.394531 " clip-rule="nonzero"/></clipPath><clipPath id="fb3a8e38b2"><path d="M 0 0.9375 L 52.960938 0.9375 L 52.960938 62.480469 L 0 62.480469 Z M 0 0.9375 " clip-rule="nonzero"/></clipPath><clipPath id="684b7a07a4"><path d="M 31.910156 28.839844 C 28.992188 30.300781 22.625 33.085938 19.574219 34.410156 C 14.535156 36.664062 11.484375 39.1875 11.484375 44.09375 C 11.484375 51.121094 16.792969 54.304688 21.039062 54.304688 C 24.488281 54.304688 29.265625 52.183594 31.917969 49.53125 Z M 41.59375 62.394531 C 39.605469 62.394531 36.6875 61.335938 35.359375 59.878906 C 33.640625 58.15625 32.84375 56.300781 32.175781 53.910156 C 26.871094 57.492188 20.371094 62.402344 16.261719 62.402344 C 6.839844 62.394531 0.0742188 54.570312 0.0742188 46.085938 C 0.0742188 39.589844 3.652344 35.34375 10.949219 32.824219 C 19.039062 30.042969 28.984375 26.59375 31.902344 24.203125 L 31.902344 21.542969 C 31.902344 12.128906 27.128906 6.691406 20.234375 6.691406 C 17.1875 6.691406 15.328125 8.152344 14.003906 9.738281 C 12.539062 11.597656 11.613281 14.515625 10.421875 18.359375 C 9.757812 20.484375 8.566406 21.410156 6.578125 21.410156 C 4.0625 21.410156 0.742188 18.753906 0.742188 15.570312 C 0.742188 13.714844 2.46875 12.121094 5.117188 10.261719 C 8.960938 7.488281 16.65625 2.574219 24.214844 0.988281 C 28.195312 0.988281 32.304688 2.179688 35.359375 4.570312 C 40 8.546875 42.125 13.058594 42.125 19.953125 L 42.125 45.554688 C 42.125 51.660156 44.375 53.515625 46.765625 53.515625 C 48.355469 53.515625 50.078125 52.855469 51.539062 52.0625 L 52.867188 55.777344 Z M 41.59375 62.394531 " clip-rule="nonzero"/></clipPath><clipPath id="49254d479a"><rect x="0" width="53" y="0" height="63"/></clipPath><clipPath id="5260a0de5c"><path d="M 192.175781 45.472656 L 257.574219 45.472656 L 257.574219 106.585938 L 192.175781 106.585938 Z M 192.175781 45.472656 " clip-rule="nonzero"/></clipPath><clipPath id="15983da6ad"><path d="M 257.445312 101.757812 C 251.078125 102.6875 243.914062 104.410156 237.148438 106.394531 L 237.148438 96.183594 C 229.984375 102.152344 224.152344 106.394531 216.851562 106.394531 C 207.964844 106.394531 200.269531 100.960938 200.269531 86.5 L 200.269531 60.769531 C 200.269531 53.601562 199.210938 52.808594 195.894531 52.148438 L 192.179688 51.480469 L 192.179688 48.039062 C 197.882812 47.773438 206.640625 46.445312 211.152344 45.648438 C 210.757812 49.894531 210.757812 56.265625 210.757812 65.015625 L 210.757812 83.050781 C 210.757812 94.71875 216.859375 98.042969 222.828125 98.042969 C 227.734375 98.042969 232.644531 95.917969 237.148438 91.671875 L 237.148438 60.769531 C 237.148438 53.601562 235.558594 52.679688 231.046875 52.011719 L 226.800781 51.480469 L 226.800781 48.039062 C 235.292969 47.644531 244.574219 46.179688 247.628906 45.648438 L 247.628906 90.085938 C 247.628906 96.722656 248.6875 97.644531 253.730469 97.910156 L 257.445312 98.042969 Z M 257.445312 101.757812 " clip-rule="nonzero"/></clipPath><clipPath id="21af194fe1"><path d="M 0.175781 0.519531 L 65.574219 0.519531 L 65.574219 61.480469 L 0.175781 61.480469 Z M 0.175781 0.519531 " clip-rule="nonzero"/></clipPath><clipPath id="a8e012d7c5"><path d="M 65.445312 56.757812 C 59.078125 57.6875 51.914062 59.410156 45.148438 61.394531 L 45.148438 51.183594 C 37.984375 57.152344 32.152344 61.394531 24.851562 61.394531 C 15.964844 61.394531 8.269531 55.960938 8.269531 41.5 L 8.269531 15.769531 C 8.269531 8.601562 7.210938 7.808594 3.894531 7.148438 L 0.179688 6.480469 L 0.179688 3.039062 C 5.882812 2.773438 14.640625 1.445312 19.152344 0.648438 C 18.757812 4.894531 18.757812 11.265625 18.757812 20.015625 L 18.757812 38.050781 C 18.757812 49.71875 24.859375 53.042969 30.828125 53.042969 C 35.734375 53.042969 40.644531 50.917969 45.148438 46.671875 L 45.148438 15.769531 C 45.148438 8.601562 43.558594 7.679688 39.046875 7.011719 L 34.800781 6.480469 L 34.800781 3.039062 C 43.292969 2.644531 52.574219 1.179688 55.628906 0.648438 L 55.628906 45.085938 C 55.628906 51.722656 56.6875 52.644531 61.730469 52.910156 L 65.445312 53.042969 Z M 65.445312 56.757812 " clip-rule="nonzero"/></clipPath><clipPath id="8382d617ef"><rect x="0" width="66" y="0" height="62"/></clipPath><clipPath id="58a8095a28"><path d="M 264.007812 44.402344 L 308.5 44.402344 L 308.5 104.976562 L 264.007812 104.976562 Z M 264.007812 44.402344 " clip-rule="nonzero"/></clipPath><clipPath id="86bd2db9d9"><path d="M 294.589844 104.8125 L 264.078125 104.8125 L 264.078125 101.097656 C 272.433594 100.300781 273.230469 99.632812 273.230469 91.011719 L 273.230469 63.421875 C 273.230469 54.664062 272.699219 54.269531 265.003906 53.339844 L 265.003906 50.023438 C 271.503906 48.964844 277.476562 47.371094 283.710938 44.589844 L 283.710938 59.175781 C 288.351562 52.277344 293.921875 44.984375 300.554688 44.984375 C 305.460938 44.984375 308.253906 48.03125 308.253906 51.351562 C 308.253906 54.398438 306.128906 57.320312 303.742188 58.644531 C 302.414062 59.441406 301.351562 59.3125 300.292969 58.378906 C 298.304688 56.394531 296.710938 55.066406 294.324219 55.066406 C 291.542969 55.066406 286.628906 59.175781 283.714844 65.945312 L 283.714844 90.882812 C 283.714844 99.640625 284.375 100.300781 294.589844 101.097656 Z M 294.589844 104.8125 " clip-rule="nonzero"/></clipPath><clipPath id="f35359c537"><path d="M 0.0078125 0.558594 L 44.320312 0.558594 L 44.320312 60.976562 L 0.0078125 60.976562 Z M 0.0078125 0.558594 " clip-rule="nonzero"/></clipPath><clipPath id="0d3f62e7b8"><path d="M 30.589844 60.8125 L 0.078125 60.8125 L 0.078125 57.097656 C 8.433594 56.300781 9.230469 55.632812 9.230469 47.011719 L 9.230469 19.421875 C 9.230469 10.664062 8.699219 10.269531 1.003906 9.339844 L 1.003906 6.023438 C 7.503906 4.964844 13.476562 3.371094 19.710938 0.589844 L 19.710938 15.175781 C 24.351562 8.277344 29.921875 0.984375 36.554688 0.984375 C 41.460938 0.984375 44.253906 4.03125 44.253906 7.351562 C 44.253906 10.398438 42.128906 13.320312 39.742188 14.644531 C 38.414062 15.441406 37.351562 15.3125 36.292969 14.378906 C 34.304688 12.394531 32.710938 11.066406 30.324219 11.066406 C 27.542969 11.066406 22.628906 15.175781 19.714844 21.945312 L 19.714844 46.882812 C 19.714844 55.640625 20.375 56.300781 30.589844 57.097656 Z M 30.589844 60.8125 " clip-rule="nonzero"/></clipPath><clipPath id="1465847452"><rect x="0" width="45" y="0" height="61"/></clipPath><clipPath id="375fba5656"><path d="M 314.398438 44.9375 L 367.46875 44.9375 L 367.46875 106.585938 L 314.398438 106.585938 Z M 314.398438 44.9375 " clip-rule="nonzero"/></clipPath><clipPath id="d8b78b3819"><path d="M 346.320312 72.839844 C 343.402344 74.300781 337.035156 77.085938 333.984375 78.410156 C 328.941406 80.664062 325.894531 83.1875 325.894531 88.09375 C 325.894531 95.121094 331.203125 98.304688 335.449219 98.304688 C 338.898438 98.304688 343.675781 96.183594 346.328125 93.53125 Z M 356.003906 106.394531 C 354.015625 106.394531 351.097656 105.335938 349.769531 103.878906 C 348.050781 102.15625 347.253906 100.300781 346.585938 97.910156 C 341.277344 101.492188 334.78125 106.402344 330.671875 106.402344 C 321.253906 106.402344 314.492188 98.578125 314.492188 90.085938 C 314.492188 83.589844 318.070312 79.34375 325.363281 76.824219 C 333.453125 74.042969 343.402344 70.59375 346.320312 68.203125 L 346.320312 65.542969 C 346.320312 56.128906 341.542969 50.691406 334.644531 50.691406 C 331.597656 50.691406 329.738281 52.152344 328.414062 53.738281 C 326.949219 55.597656 326.023438 58.515625 324.832031 62.359375 C 324.167969 64.484375 322.976562 65.410156 320.988281 65.410156 C 318.472656 65.410156 315.152344 62.753906 315.152344 59.570312 C 315.152344 57.714844 316.871094 56.121094 319.527344 54.261719 C 323.371094 51.480469 331.066406 46.566406 338.625 44.976562 C 342.605469 44.976562 346.714844 46.167969 349.769531 48.554688 C 354.410156 52.535156 356.535156 57.046875 356.535156 63.9375 L 356.535156 89.554688 C 356.535156 95.660156 358.785156 97.515625 361.175781 97.515625 C 362.765625 97.515625 364.488281 96.855469 365.949219 96.0625 L 367.277344 99.777344 Z M 356.003906 106.394531 " clip-rule="nonzero"/></clipPath><clipPath id="5ef19d6a80"><path d="M 0.398438 0.9375 L 53.359375 0.9375 L 53.359375 62.480469 L 0.398438 62.480469 Z M 0.398438 0.9375 " clip-rule="nonzero"/></clipPath><clipPath id="68f208391e"><path d="M 32.320312 28.839844 C 29.402344 30.300781 23.035156 33.085938 19.984375 34.410156 C 14.941406 36.664062 11.894531 39.1875 11.894531 44.09375 C 11.894531 51.121094 17.203125 54.304688 21.449219 54.304688 C 24.898438 54.304688 29.675781 52.183594 32.328125 49.53125 Z M 42.003906 62.394531 C 40.015625 62.394531 37.097656 61.335938 35.769531 59.878906 C 34.050781 58.15625 33.253906 56.300781 32.585938 53.910156 C 27.277344 57.492188 20.78125 62.402344 16.671875 62.402344 C 7.253906 62.402344 0.492188 54.578125 0.492188 46.085938 C 0.492188 39.589844 4.070312 35.34375 11.363281 32.824219 C 19.453125 30.042969 29.402344 26.59375 32.320312 24.203125 L 32.320312 21.542969 C 32.320312 12.128906 27.542969 6.691406 20.644531 6.691406 C 17.597656 6.691406 15.738281 8.152344 14.414062 9.738281 C 12.949219 11.597656 12.023438 14.515625 10.832031 18.359375 C 10.167969 20.484375 8.976562 21.410156 6.988281 21.410156 C 4.472656 21.410156 1.152344 18.753906 1.152344 15.570312 C 1.152344 13.714844 2.871094 12.121094 5.527344 10.261719 C 9.371094 7.480469 17.066406 2.566406 24.625 0.976562 C 28.605469 0.976562 32.714844 2.167969 35.769531 4.554688 C 40.410156 8.535156 42.535156 13.046875 42.535156 19.9375 L 42.535156 45.554688 C 42.535156 51.660156 44.785156 53.515625 47.175781 53.515625 C 48.765625 53.515625 50.488281 52.855469 51.949219 52.0625 L 53.277344 55.777344 Z M 42.003906 62.394531 " clip-rule="nonzero"/></clipPath><clipPath id="77fd363f93"><rect x="0" width="54" y="0" height="63"/></clipPath><clipPath id="599ec310b9"><rect x="0" width="371" y="0" height="110"/></clipPath></defs><g transform="matrix(1, 0, 0, 1, 2, 20)"><g clip-path="url(#599ec310b9)"><g clip-path="url(#c8a865cd21)"><g clip-path="url(#af201d8287)"><g transform="matrix(1, 0, 0, 1, -0.000000000000000444, -0.000000000000010658)"><g clip-path="url(#dd8b1272f9)"><g clip-path="url(#3943f8a9b4)"><g clip-path="url(#6e4f43c8fb)"><path fill="#372877" d="M 0.316406 0.199219 L 67.308594 0.199219 L 67.308594 104.875 L 0.316406 104.875 Z M 0.316406 0.199219 " fill-opacity="1" fill-rule="nonzero"/></g></g></g></g></g></g><g clip-path="url(#51c7f985fb)"><g clip-path="url(#ca8a3fd561)"><g transform="matrix(1, 0, 0, 1, 76, 43)"><g clip-path="url(#8b970cc1a4)"><g clip-path="url(#b21b545a3f)"><g clip-path="url(#bb6f7af2dd)"><path fill="#372877" d="M 0.535156 0.394531 L 49.214844 0.394531 L 49.214844 61.816406 L 0.535156 61.816406 Z M 0.535156 0.394531 " fill-opacity="1" fill-rule="nonzero"/></g></g></g></g></g></g><g clip-path="url(#e59edf1263)"><g clip-path="url(#7112a24bf3)"><g transform="matrix(1, 0, 0, 1, 136, 44)"><g clip-path="url(#49254d479a)"><g clip-path="url(#fb3a8e38b2)"><g clip-path="url(#684b7a07a4)"><rect x="-274.5" width="648" fill="#a7a9ac" y="-118.599999" height="259.199996" fill-opacity="1"/></g></g></g></g></g></g><g clip-path="url(#5260a0de5c)"><g clip-path="url(#15983da6ad)"><g transform="matrix(1, 0, 0, 1, 192, 45)"><g clip-path="url(#8382d617ef)"><g clip-path="url(#21af194fe1)"><g clip-path="url(#a8e012d7c5)"><rect x="-330.5" width="648" fill="#a7a9ac" y="-119.599999" height="259.199996" fill-opacity="1"/></g></g></g></g></g></g><g clip-path="url(#58a8095a28)"><g clip-path="url(#86bd2db9d9)"><g transform="matrix(1, 0, 0, 1, 264, 44)"><g clip-path="url(#1465847452)"><g clip-path="url(#f35359c537)"><g clip-path="url(#0d3f62e7b8)"><rect x="-402.5" width="648" fill="#a7a9ac" y="-118.599999" height="259.199996" fill-opacity="1"/></g></g></g></g></g></g><g clip-path="url(#375fba5656)"><g clip-path="url(#d8b78b3819)"><g transform="matrix(1, 0, 0, 1, 314, 44)"><g clip-path="url(#77fd363f93)"><g clip-path="url(#5ef19d6a80)"><g clip-path="url(#68f208391e)"><rect x="-452.5" width="648" fill="#a7a9ac" y="-118.599999" height="259.199996" fill-opacity="1"/></g></g></g></g></g></g></g></g></svg>